<svg width="30" height="35" viewBox="0 0 30 35" fill="none" xmlns="http://www.w3.org/2000/svg">
<rect width="30" height="30" rx="6" fill="#FF8500"/>
<g filter="url(#filter0_d_1_7585)">
<path fill-rule="evenodd" clip-rule="evenodd" d="M12.9285 10.965L12.9423 13.7101H17.0053C17.7269 13.7101 18.3117 13.1413 18.3081 12.4418L18.3071 12.2333C18.3036 11.5337 17.7131 10.965 16.9914 10.965H13.4847H12.9285ZM18.8236 17.8828L18.8224 17.6624C18.8186 16.8821 18.1608 16.2486 17.356 16.2486H17.0178H12.955L12.9703 19.2967H17.3712C18.176 19.2967 18.8275 18.6621 18.8236 17.8828ZM20.1133 14.7667C20.9218 15.4889 21.4345 16.5182 21.4402 17.6624L21.4414 17.8828C21.4523 20.0612 19.6323 21.8341 17.3842 21.8341H17.2847L17.2904 23H14.6729L14.667 21.8341H13.5942L13.6001 23H10.9825L10.9767 21.8341H10.3656H9.06749L9.05472 19.2967H10.3529L10.3376 16.2486L10.3247 13.7101L10.3109 10.965H9.01277L9 8.42662H10.9092L10.902 7H13.5196L13.5267 8.42662H14.5997L14.5924 7H17.2101L17.2172 8.43857C19.2722 8.55944 20.9146 10.2125 20.9247 12.2333L20.9258 12.4418C20.9302 13.3175 20.6246 14.1224 20.1133 14.7667Z" fill="white"/>
</g>
<defs>
<filter id="filter0_d_1_7585" x="1" y="3" width="28.4414" height="32" filterUnits="userSpaceOnUse" color-interpolation-filters="sRGB">
<feFlood flood-opacity="0" result="BackgroundImageFix"/>
<feColorMatrix in="SourceAlpha" type="matrix" values="0 0 0 0 0 0 0 0 0 0 0 0 0 0 0 0 0 0 127 0" result="hardAlpha"/>
<feOffset dy="4"/>
<feGaussianBlur stdDeviation="4"/>
<feColorMatrix type="matrix" values="0 0 0 0 0 0 0 0 0 0 0 0 0 0 0 0 0 0 0.0744452 0"/>
<feBlend mode="normal" in2="BackgroundImageFix" result="effect1_dropShadow_1_7585"/>
<feBlend mode="normal" in="SourceGraphic" in2="effect1_dropShadow_1_7585" result="shape"/>
</filter>
</defs>
</svg>
