<svg width="30" height="30" viewBox="0 0 30 30" fill="none" xmlns="http://www.w3.org/2000/svg">
<rect width="30" height="30" rx="6" fill="#3D5EDE"/>
<g clip-path="url(#clip0_1_7591)">
<path d="M15.016 18.0456C14.9674 18.0618 14.9397 18.0202 14.9066 18.0011C13.285 17.0604 11.6652 16.119 10.0472 15.177C10.0315 15.1693 10.0152 15.1627 9.99854 15.1574V15.1364L10.0272 15.1201C10.068 15.1096 10.1081 15.0968 10.1474 15.0819L13.9687 13.3729C14.3092 13.2204 14.6497 13.0702 14.9903 12.9191H15.0146C15.0146 12.9669 15.0146 13.0095 15.0146 13.0549C15.0159 14.7186 15.0164 16.3822 15.016 18.0456Z" fill="white"/>
<path d="M15.0185 12.9203H14.9941C14.9941 12.8725 14.999 12.8247 14.999 12.7745C14.999 10.9058 14.999 9.03693 14.999 7.16793C14.9934 7.11992 14.9967 7.07132 15.0087 7.02448H15.019C15.2189 7.31472 15.3931 7.62075 15.5769 7.92056C17.0338 10.2958 18.4898 12.6707 19.945 15.0453C19.9591 15.0687 19.9703 15.0931 19.983 15.1189C19.9417 15.1103 19.9013 15.0986 19.8618 15.084C19.5947 14.9654 19.3267 14.8449 19.0621 14.7239C18.6476 14.5375 18.2329 14.3513 17.8181 14.1654L15.8197 13.2756C15.5536 13.1551 15.286 13.0379 15.0185 12.9203Z" fill="white"/>
<path d="M15.0103 7.02218C14.9983 7.06903 14.995 7.11763 15.0006 7.16563C15.0006 9.03431 15.0006 10.9032 15.0006 12.7722C15.0006 12.82 14.9977 12.8678 14.9957 12.918C14.6552 13.0691 14.3147 13.2192 13.9741 13.3718L10.1529 15.0808C10.1136 15.0957 10.0735 15.1085 10.0327 15.119C10.1431 14.8933 10.2867 14.6887 10.4175 14.4725C11.9337 11.9953 13.451 9.51854 14.9695 7.04226C14.9795 7.02854 14.9904 7.01545 15.0021 7.00305L15.0103 7.02218Z" fill="white"/>
<path d="M15.0185 12.9203C15.2861 13.038 15.5537 13.1551 15.8207 13.2737L17.8192 14.1636C18.2343 14.3491 18.649 14.5353 19.0631 14.7221C19.3297 14.8421 19.5982 14.9636 19.8629 15.0821C19.9023 15.0967 19.9428 15.1084 19.984 15.1171C20.0327 15.1768 19.9607 15.1792 19.9388 15.1921C19.5238 15.436 19.1069 15.6765 18.691 15.9185C17.4971 16.6128 16.3037 17.3069 15.1105 18.0009C15.0803 18.0181 15.0477 18.031 15.0161 18.0458C15.0161 16.3828 15.0161 14.7195 15.0161 13.0561C15.0166 13.0107 15.0181 12.9658 15.0185 12.9203Z" fill="white"/>
<path d="M14.999 18.9903L18.1246 17.1795C18.7213 16.8333 19.3177 16.4867 19.9138 16.1399L19.9678 16.1107C19.9732 16.1586 19.9396 16.1839 19.9192 16.2116C18.557 18.0991 17.1949 19.986 15.8328 21.8722C15.5749 22.2299 15.3176 22.5895 15.0573 22.9443C15.0437 22.9629 15.0228 23.0504 14.981 22.9576C15.014 22.9299 14.9994 22.8926 14.9994 22.862C14.9998 21.571 14.9996 20.2804 14.999 18.9903Z" fill="white"/>
<path d="M14.9987 18.9905C14.9987 20.2806 14.9987 21.5704 14.9987 22.8599C14.9987 22.8929 15.0133 22.9302 14.9802 22.9555C14.9106 22.9144 14.8805 22.8407 14.8343 22.78C13.2548 20.5932 11.6762 18.4061 10.0984 16.2186C10.0785 16.1909 10.06 16.1612 10.0396 16.1306C10.0804 16.1072 10.1023 16.1392 10.1261 16.1531C11.7234 17.0801 13.3203 18.0079 14.917 18.9365C14.9466 18.9547 14.9719 18.9733 14.9987 18.9905Z" fill="white"/>
<path d="M15.0107 7.02197L14.999 7.00428C15.0204 6.99089 15.0175 7.0105 15.0209 7.02054L15.0107 7.02197Z" fill="white"/>
</g>
<defs>
<clipPath id="clip0_1_7591">
<rect width="10" height="16" fill="white" transform="translate(10 7)"/>
</clipPath>
</defs>
</svg>
