<svg width="30" height="30" viewBox="0 0 30 30" fill="none" xmlns="http://www.w3.org/2000/svg">
<rect width="30" height="30" rx="6" fill="#D30000"/>
<path d="M20.7501 15.6302C20.7402 15.6826 20.5862 15.8399 20.4321 15.9546C19.9799 16.2856 19.1703 16.5937 18.3477 16.7412C17.879 16.8264 17.4104 16.8395 17.2694 16.7707C17.1777 16.7248 17.1646 16.6888 17.1973 16.5708C17.2662 16.325 17.489 16.0562 17.8364 15.8039C18.0134 15.676 18.7312 15.2401 19.0655 15.0566C19.6161 14.7551 20.0618 14.5748 20.3633 14.5322C20.4584 14.5191 20.5731 14.5158 20.6091 14.5322C20.6681 14.5552 20.7337 14.7289 20.7599 14.9386C20.773 15.05 20.7664 15.5417 20.7501 15.6302Z" fill="white"/>
<path d="M13.0291 16.7149C13.0095 16.7542 12.9112 16.7968 12.7997 16.8132C12.6883 16.8296 12.3474 16.8197 12.1541 16.7968C11.4593 16.705 10.7218 16.492 10.1843 16.2298C9.88281 16.0823 9.6665 15.9348 9.5059 15.7742L9.41414 15.6792L9.4043 15.5546C9.38792 15.3383 9.39119 14.9975 9.41741 14.8762C9.4338 14.7746 9.46985 14.6763 9.51901 14.5878C9.54523 14.555 9.54523 14.555 9.66322 14.555C9.80743 14.555 9.92869 14.578 10.1253 14.6402C10.5285 14.7648 11.1282 15.0663 11.8591 15.5055C12.4621 15.866 12.6883 16.043 12.862 16.2855C12.98 16.4363 13.0586 16.6493 13.0291 16.7149Z" fill="white"/>
<path d="M17.6696 21.2773C17.6696 21.2871 17.6302 21.4445 17.5811 21.6313C17.5319 21.8181 17.4926 21.9688 17.4926 21.9754C17.4565 21.9787 17.4238 21.982 17.3877 21.9787H17.2828L17.1386 22.3195C17.06 22.5063 16.9879 22.6801 16.978 22.7063L16.9584 22.7522L16.8895 22.6407L16.8207 22.5293V21.6214L16.7945 21.628C16.7388 21.6411 16.3422 21.6935 16.1685 21.7099C15.4508 21.782 14.7297 21.7656 14.0152 21.664C13.9005 21.6477 13.8022 21.6345 13.7989 21.6378C13.7956 21.6411 13.7989 21.8509 13.8055 22.1098L13.8153 22.5752L13.7596 22.6604C13.7301 22.7063 13.7006 22.7456 13.7006 22.7489C13.6908 22.7587 13.658 22.7063 13.5826 22.5555C13.5007 22.3982 13.4417 22.231 13.3991 22.0573L13.3761 21.9623L13.2745 21.9688L13.1729 21.9787L13.1467 21.8574C13.1336 21.7919 13.1172 21.6903 13.1107 21.6345L13.1008 21.5297L13.0156 21.4543C12.9665 21.4117 12.9173 21.3691 12.9075 21.3625C12.8911 21.3494 12.8845 21.3265 12.8845 21.3068V21.2675L13.2942 21.2708L13.7039 21.274L13.717 21.3166L13.7301 21.3592L13.871 21.3658C13.9497 21.3691 14.1988 21.3756 14.4216 21.3822L14.8313 21.392L14.9362 21.2281L15.0444 21.0643H15.182L15.1787 20.7234L15.1754 20.3826L14.9952 20.3039C14.4151 20.0483 14.0742 19.7566 13.9464 19.4026C13.9202 19.3305 13.9202 19.3043 13.9136 18.9766C13.9104 18.6521 13.9104 18.6226 13.9333 18.5505C13.9792 18.3866 14.107 18.2588 14.2709 18.2162C14.3266 18.1998 14.4741 18.1998 15.2476 18.1998L16.1587 18.2031L16.2603 18.2522C16.3815 18.3112 16.4373 18.3538 16.5061 18.4456C16.5847 18.5505 16.6077 18.6324 16.6077 18.8323C16.6077 19.1175 16.588 19.3633 16.5585 19.4616C16.5159 19.596 16.4504 19.7238 16.3684 19.8385C16.2046 20.0483 15.9063 20.258 15.6343 20.3531L15.5556 20.3826L15.5589 20.7267L15.5622 21.0708L15.6343 21.0774L15.7064 21.0839L15.8047 21.2314L15.8998 21.3789H16.3389C16.5815 21.3789 16.7945 21.3822 16.8142 21.3855C16.8469 21.392 16.8535 21.3887 16.8863 21.333L16.9256 21.274H17.3025C17.5844 21.2609 17.6696 21.2675 17.6696 21.2773Z" fill="#D30000"/>
<path d="M15.94 22.2175C15.8778 22.2536 15.8352 22.27 15.8253 22.2634C15.8155 22.2601 15.7696 22.2208 15.7204 22.1847L15.632 22.1126L15.5402 22.211C15.3403 22.4273 15.3337 22.4371 15.2747 22.4404C15.1829 22.4502 15.1633 22.4338 15.0518 22.2667C14.9929 22.1815 14.947 22.1094 14.947 22.1094C14.947 22.1094 14.9044 22.1028 14.8552 22.0995L14.7634 22.0897L14.7208 22.1782L14.6782 22.2667L14.6028 22.2437C14.5438 22.2241 14.4848 22.2011 14.4291 22.1749L14.3308 22.1257V21.9389L15.2026 21.9422L16.0744 21.9455L16.0777 22.034C16.081 22.1389 16.0842 22.1356 15.94 22.2175Z" fill="#D30000"/>
<path d="M24.1334 18.2191C24.1302 18.206 24.1302 18.1831 24.1269 18.147C23.3403 18.0618 21.0952 18.0094 19.0108 19.73C19.0108 19.73 18.3389 16.6492 15.1926 16.6492C12.0463 16.6492 10.8795 19.73 10.8795 19.73C9.11623 17.8324 6.75648 17.97 5.90434 18.0946C5.90434 18.1142 5.90107 18.1372 5.90107 18.1569C5.87485 18.6321 5.88796 18.8582 5.96661 19.1565C6.21242 20.0905 6.96951 21.1197 8.15594 22.1291C10.0995 23.7809 12.7345 24.9739 14.7305 25.1116C16.8116 25.2525 19.8826 24.0366 21.9277 22.2602C22.2489 21.9751 22.5504 21.6735 22.8323 21.3523C23.0355 21.1164 23.337 20.71 23.3141 20.71C23.3075 20.71 23.3141 20.7034 23.3272 20.6969C23.337 20.6903 23.3468 20.6805 23.3403 20.6739C23.337 20.6706 23.3436 20.6608 23.3534 20.6575C23.3632 20.6543 23.3698 20.6477 23.3665 20.6411C23.3632 20.6346 23.3665 20.628 23.3796 20.6248C23.3895 20.6215 23.3927 20.6116 23.3895 20.6051C23.3862 20.5985 23.3895 20.592 23.396 20.592C23.4026 20.592 23.4091 20.5822 23.4091 20.5756C23.4091 20.569 23.4157 20.5592 23.4222 20.5592C23.4288 20.5592 23.4353 20.5527 23.4353 20.5461C23.4452 20.5199 23.4616 20.4937 23.4779 20.4707C23.5271 20.3953 23.7237 20.0447 23.75 19.9857C23.9368 19.5629 24.0548 19.186 24.1105 18.8091C24.1302 18.6288 24.1465 18.2978 24.1334 18.2191ZM15.9398 22.2176C15.8776 22.2536 15.835 22.27 15.8251 22.2635C15.8153 22.2602 15.7694 22.2209 15.7203 22.1848L15.6318 22.1127L15.54 22.211C15.3401 22.4273 15.3335 22.4372 15.2745 22.4405C15.1828 22.4503 15.1631 22.4339 15.0517 22.2668C14.9927 22.1815 14.9468 22.1094 14.9468 22.1094C14.9468 22.1094 14.9042 22.1029 14.855 22.0996L14.7632 22.0898L14.7206 22.1783L14.678 22.2668L14.6027 22.2438C14.5437 22.2241 14.4847 22.2012 14.429 22.175L14.3306 22.1258V21.939L15.2024 21.9423L16.0742 21.9456L16.0775 22.0341C16.0808 22.1389 16.0841 22.1357 15.9398 22.2176ZM17.5786 21.6277C17.5294 21.8145 17.4901 21.9652 17.4901 21.9718C17.454 21.9751 17.4212 21.9783 17.3852 21.9751H17.2803L17.1394 22.3192C17.0607 22.506 16.9886 22.6797 16.9788 22.7059L16.9591 22.7518L16.8903 22.6404L16.8215 22.5289V21.6211L16.7953 21.6277C16.7395 21.6408 16.343 21.6932 16.1693 21.7096C15.4515 21.7817 14.7305 21.7653 14.016 21.6637C13.9013 21.6473 13.803 21.6342 13.7997 21.6375C13.7964 21.6408 13.7997 21.8505 13.8062 22.1094L13.8161 22.5748L13.7604 22.66C13.7309 22.7059 13.7014 22.7453 13.7014 22.7485C13.6915 22.7584 13.6588 22.7059 13.5834 22.5552C13.5014 22.3978 13.4424 22.2307 13.3998 22.057L13.3769 21.9619L13.2753 21.9685L13.1737 21.9783L13.1475 21.8571C13.1344 21.7915 13.118 21.6899 13.1114 21.6342L13.1016 21.5293L13.0164 21.4539C12.9672 21.4113 12.9181 21.3687 12.9082 21.3622C12.8918 21.3491 12.8853 21.3261 12.8853 21.3065V21.2671L13.295 21.2704L13.7046 21.2737L13.7177 21.3163L13.7309 21.3589L13.8718 21.3655C13.9504 21.3687 14.1995 21.3753 14.4224 21.3818L14.8321 21.3917L14.937 21.2278L15.0451 21.0639H15.1828L15.1795 20.7231L15.1762 20.3822L14.9959 20.3036C14.4158 20.0479 14.075 19.7562 13.9472 19.4023C13.9209 19.3302 13.9209 19.304 13.9144 18.9762C13.9111 18.6517 13.9111 18.6222 13.9341 18.5501C13.9799 18.3863 14.1078 18.2585 14.2716 18.2158C14.3273 18.1995 14.4748 18.1995 15.2483 18.1995L16.1594 18.2027L16.261 18.2519C16.3823 18.3109 16.438 18.3535 16.5068 18.4453C16.5855 18.5501 16.6084 18.6321 16.6084 18.832C16.6084 19.1171 16.5888 19.3629 16.5593 19.4613C16.5167 19.5956 16.4511 19.7235 16.3692 19.8382C16.2053 20.0479 15.9071 20.2577 15.635 20.3527L15.5564 20.3822L15.5597 20.7264L15.5629 21.0705L15.635 21.077L15.7071 21.0836L15.8055 21.2311L15.9005 21.3786H16.3397C16.5822 21.3786 16.7953 21.3818 16.8149 21.3851C16.8477 21.3917 16.8543 21.3884 16.887 21.3327L16.9264 21.2737H17.3033C17.5949 21.2737 17.6802 21.277 17.6802 21.2868C17.6703 21.2835 17.6277 21.4441 17.5786 21.6277Z" fill="white"/>
<path d="M19.2594 18.9165C20.9218 17.7824 22.5988 17.6009 23.5922 17.6157C23.5884 17.56 23.5846 17.511 23.5813 17.4773L23.5812 17.4762C23.447 16.0596 23.0886 14.9123 22.4039 13.6875C22.3746 13.6382 22.3427 13.5804 22.3164 13.5222C22.3099 13.5098 22.3051 13.4994 22.3018 13.4921C22.3011 13.4906 22.3004 13.489 22.2997 13.4875L22.2118 13.3117L22.2199 13.2874L21.7257 12.407C21.271 11.597 20.6623 10.8783 19.9375 10.2949L19.9311 10.2917L19.89 10.2589C19.6323 10.0534 19.408 9.90325 19.2503 9.80567C19.1716 9.75693 19.1097 9.72145 19.069 9.69887C19.0486 9.68758 19.0335 9.67953 19.0243 9.67467L19.0149 9.66976L19.0146 9.66961L19.0145 9.66955L19.0143 9.66949L19.0141 9.66937L19.0138 9.66921L19.0136 9.6691L18.618 9.47131L18.287 9.36354L18.1461 9.31765L18.1456 9.31751C17.3719 9.0648 16.5707 8.90903 15.7641 8.85609L15.7585 8.85572L15.7585 8.85569C15.5307 8.83816 14.602 8.83767 14.3084 8.85612C13.4122 8.9155 12.7378 9.04771 11.969 9.3144C11.9273 9.33068 11.8905 9.34295 11.8645 9.35162L11.8615 9.35261L11.516 9.46779L11.5122 9.4626L11.0735 9.67516L11.0734 9.67525L11.073 9.6754L11.0728 9.6755L11.0727 9.67556L11.0726 9.67563L11.0721 9.67589L11.0621 9.68091C11.0524 9.68585 11.0367 9.69399 11.0155 9.70536C10.9731 9.72812 10.9089 9.76379 10.8272 9.81274C10.6648 9.91001 10.4343 10.0591 10.1692 10.2629C10.1593 10.2708 10.1473 10.2798 10.1334 10.2891C10.1324 10.2897 10.1314 10.2904 10.1302 10.2912C9.55127 10.7394 8.82249 11.4397 8.26275 12.4118L7.74818 13.3054L7.51988 12.7346C7.58828 12.9508 7.64512 13.1229 7.684 13.2387L7.74473 13.4195L7.6696 13.5948C7.65414 13.6309 7.63566 13.6683 7.6166 13.7029C6.97873 14.9979 6.59948 16.2433 6.44992 17.5394C7.49807 17.4863 9.23345 17.6343 10.7312 18.9C10.9026 18.6021 11.1487 18.2303 11.4805 17.8572C11.651 17.6655 11.8452 17.4725 12.0641 17.2887C11.3318 17.1892 10.5527 16.9648 9.96672 16.6789L9.96624 16.6787C9.63291 16.5157 9.36548 16.3391 9.15395 16.1275L9.14774 16.1213L9.1478 16.1213L9.05603 16.0262L8.93141 15.8972L8.91729 15.7183L8.90745 15.5938L8.90733 15.5922C8.89774 15.4656 8.89431 15.3106 8.89654 15.1715C8.89847 15.0518 8.9049 14.8986 8.92728 14.7849C8.95456 14.6249 9.01077 14.4757 9.08353 14.3447L9.10393 14.308L9.13017 14.2752L9.13063 14.2746C9.1331 14.2715 9.14249 14.2598 9.15292 14.2478C9.16537 14.2336 9.18721 14.2098 9.21752 14.1845C9.2908 14.1234 9.37113 14.0887 9.44749 14.0713C9.50646 14.0579 9.55907 14.0562 9.58114 14.0555C9.6059 14.0548 9.63485 14.0548 9.66007 14.0548H9.66482C9.87797 14.0548 10.0527 14.0921 10.2762 14.1628C10.2768 14.163 10.2773 14.1632 10.2779 14.1633L10.1269 14.64C10.5301 14.7645 11.1298 15.0661 11.8607 15.5052L19.2594 18.9165ZM19.2594 18.9165C19.134 18.621 18.9489 18.259 18.6836 17.895C18.5312 17.6858 18.352 17.476 18.1432 17.2782C18.2407 17.266 18.34 17.2508 18.4389 17.2329C19.3045 17.0776 20.1947 16.7493 20.7298 16.3577L20.7298 16.3577L20.7331 16.3553C20.8312 16.2822 20.9278 16.1971 21.0047 16.1186C21.0428 16.0797 21.0829 16.0354 21.1179 15.9896C21.1352 15.9668 21.1564 15.937 21.1763 15.9021C21.1921 15.8745 21.2274 15.8094 21.2438 15.7219L21.244 15.7208C21.2556 15.6584 21.2598 15.5752 21.2622 15.5226C21.2652 15.4557 21.2672 15.3771 21.2683 15.2995C21.2702 15.1607 21.2699 14.9746 21.2588 14.8798L21.2583 14.8762C21.2414 14.741 21.2108 14.6061 21.1676 14.4903C21.1464 14.4335 21.1168 14.3665 21.0751 14.3025C21.0452 14.2567 20.9618 14.1363 20.8052 14.0709C20.7245 14.0368 20.6504 14.0286 20.6227 14.0257C20.5808 14.0214 20.5402 14.0205 20.5061 14.0208C20.4374 14.0214 20.3636 14.0274 20.2973 14.0365L20.2957 14.0368C19.8994 14.0928 19.3869 14.3114 18.8276 14.6177L18.8271 14.6179C18.4867 14.8049 17.7479 15.2524 17.546 15.3981L17.5449 15.399C17.1717 15.67 16.8491 16.0115 16.7275 16.4038C16.2835 16.2446 15.7738 16.1491 15.1906 16.1491C14.5569 16.1491 13.9951 16.2618 13.5007 16.4453C13.4911 16.4128 13.4804 16.3819 13.4695 16.3532C13.4237 16.2336 13.3533 16.1019 13.2642 15.986C13.0252 15.6557 12.7168 15.4345 12.1178 15.0764" fill="#D30000" stroke="white"/>
<path d="M23.0442 7.3448C22.7886 7.31203 21.5792 7.30547 20.2093 9.8717L20.2027 9.86842C19.6521 9.42925 19.2391 9.22277 19.2391 9.22277C21.4055 6.73192 22.746 6.59427 22.746 6.59427C22.8968 6.79419 22.9918 7.04983 23.0442 7.3448Z" fill="white"/>
<path d="M22.1659 12.1625C21.6677 11.2776 21.0056 10.5008 20.2092 9.87155C21.5792 7.30532 22.7853 7.31187 23.0442 7.34465C23.349 9.09807 22.1659 12.1625 22.1659 12.1625Z" fill="white"/>
<path d="M23.0931 7.35433C23.0768 7.35107 23.0605 7.34781 23.0442 7.34454L23.0931 7.35433Z" fill="white"/>
<path d="M10.8548 9.22274C10.8548 9.22274 10.4287 9.42922 9.85842 9.86839C9.85842 9.86839 9.85514 9.87167 9.85186 9.87167C8.43273 7.30216 7.18403 7.312 6.91528 7.34477C6.96772 7.0498 7.06605 6.79088 7.22009 6.59424C7.22336 6.59424 8.61299 6.73189 10.8548 9.22274Z" fill="white"/>
<path d="M9.8548 9.87158C9.23209 10.3501 8.43895 11.1006 7.82935 12.1625C7.82935 12.1625 6.60359 9.0981 6.91822 7.34468C7.1837 7.3119 8.43567 7.30535 9.8548 9.87158Z" fill="white"/>
<path d="M6.91754 7.34451C6.90124 7.34777 6.88167 7.35104 6.86536 7.3543L6.91754 7.34451Z" fill="white"/>
<path d="M18.8472 13.8632C18.8472 13.8632 17.7985 13.9288 17.9296 13.1094C18.0607 12.2901 18.88 12.1917 19.1094 12.2245C19.3388 12.2573 20.2565 12.585 20.0927 13.2733C19.9288 13.9616 19.6994 13.8305 19.5683 13.8632C19.4372 13.896 18.8472 13.8632 18.8472 13.8632Z" fill="white"/>
<path d="M11.113 13.8633C11.113 13.8633 10.0642 13.9288 10.1953 13.1095C10.3264 12.2901 11.1458 12.1918 11.3752 12.2246C11.6046 12.2574 12.5223 12.5851 12.3584 13.2734C12.1945 13.9616 11.9651 13.8305 11.834 13.8633C11.7029 13.8961 11.113 13.8633 11.113 13.8633Z" fill="white"/>
</svg>
