<svg width="30" height="30" viewBox="0 0 30 30" fill="none" xmlns="http://www.w3.org/2000/svg">
<rect width="30" height="30" rx="6" fill="#9E18CA"/>
<path d="M9.73757 18.3302C9.83278 18.2345 9.9637 18.1787 10.1026 18.1787H22.6945C22.9246 18.1787 23.0396 18.4577 22.877 18.6212L20.3895 21.1206C20.2943 21.2163 20.1634 21.2721 20.0245 21.2721H7.43262C7.20252 21.2721 7.08747 20.993 7.25013 20.8296L9.73757 18.3302Z" fill="white"/>
<path d="M9.73757 8.99813C9.83675 8.90246 9.96767 8.84665 10.1026 8.84665H22.6945C22.9246 8.84665 23.0396 9.12569 22.877 9.28913L20.3895 11.7885C20.2943 11.8842 20.1634 11.94 20.0245 11.94H7.43262C7.20252 11.94 7.08747 11.661 7.25013 11.4975L9.73757 8.99813Z" fill="white"/>
<path d="M20.3895 13.6342C20.2943 13.5386 20.1634 13.4828 20.0245 13.4828H7.43262C7.20252 13.4828 7.08747 13.7618 7.25013 13.9252L9.73757 16.4246C9.83278 16.5203 9.9637 16.5761 10.1026 16.5761H22.6945C22.9246 16.5761 23.0396 16.2971 22.877 16.1336L20.3895 13.6342Z" fill="white"/>
</svg>
