<svg width="14" height="16" viewBox="0 0 14 16" fill="none" xmlns="http://www.w3.org/2000/svg">
<path d="M7.88 10.9108C8.26166 11.4197 8.79377 11.7956 9.40094 11.9852C10.0081 12.1749 10.6596 12.1687 11.263 11.9675C11.8665 11.7664 12.3914 11.3805 12.7633 10.8644C13.1352 10.3484 13.3354 9.72841 13.3354 9.09231C13.3354 8.40857 13.1002 7.78423 12.7183 7.27748L12.7292 7.27385L6.66769 0L0.606154 7.27385L0.617065 7.27748C0.218716 7.79881 0.00198996 8.43621 0 9.09231C0 9.72841 0.200144 10.3484 0.572081 10.8644C0.944019 11.3805 1.46889 11.7664 2.07236 11.9675C2.67582 12.1687 3.32728 12.1749 3.93445 11.9852C4.54162 11.7956 5.07372 11.4197 5.45538 10.9108L6.06154 10.1034V12.7292C6.06154 14.5477 3.03077 14.5477 3.03077 14.5477C2.87001 14.5477 2.71583 14.6116 2.60215 14.7252C2.48848 14.8389 2.42462 14.9931 2.42462 15.1538C2.42462 15.3146 2.48848 15.4688 2.60215 15.5825C2.71583 15.6961 2.87001 15.76 3.03077 15.76H10.3046C10.4654 15.76 10.6196 15.6961 10.7332 15.5825C10.8469 15.4688 10.9108 15.3146 10.9108 15.1538C10.9108 14.9931 10.8469 14.8389 10.7332 14.7252C10.6196 14.6116 10.4654 14.5477 10.3046 14.5477C10.3046 14.5477 7.27385 14.5477 7.27385 12.7292V10.1034L7.88 10.9108Z" fill="#E90083"/>
</svg>
