<svg width="100" height="24" viewBox="0 0 100 24" fill="none" xmlns="http://www.w3.org/2000/svg">
<g clip-path="url(#clip0_1_6363)">
<path d="M31.7624 0.445027L31.3385 3.08522C31.1648 4.17307 30.2258 4.97322 29.1251 4.97322H24.6997L25.1236 2.33302C25.2973 1.24518 26.2363 0.445027 27.337 0.445027H31.7624ZM28.0513 7.23731H24.3373L22.1374 20.9657C21.9202 22.3248 22.9685 23.5565 24.3448 23.5565H28.0588L30.2588 9.82806C30.4759 8.469 29.4276 7.23731 28.0513 7.23731ZM12.743 0.427046H3.70503L3.39204 2.38397C3.17489 3.74152 4.2232 4.97172 5.59649 4.97172H10.892C12.9137 4.97172 14.4547 6.7803 14.1342 8.77767C13.8168 10.7601 12.108 12.2165 10.1012 12.2165H9.31351H8.15287H3.72001C2.62378 12.2165 1.68928 13.0137 1.51556 14.097L0 23.5385H4.43736C5.5306 23.5385 6.46359 22.7443 6.63582 21.664L7.42355 16.7462H11.7381C16.0332 16.7462 19.6918 13.625 20.3717 9.38303C21.125 4.68552 17.4978 0.427046 12.743 0.427046ZM79.2839 0.443529H73.2216C72.4848 0.443529 71.7959 0.810639 71.3841 1.42199L66.9946 7.94006L64.8755 1.93594C64.5596 1.04289 63.7164 0.445027 62.7684 0.445027H57.1076L53.8204 20.9507C53.6032 22.3083 54.6515 23.54 56.0263 23.54H59.7418L61.7471 11.0268L62.8358 14.1135L63.2971 15.4186C63.6011 16.2787 64.311 16.959 65.2035 17.1448C66.2429 17.3621 67.2807 16.923 67.8543 16.0719L69.1736 14.1135L71.2523 11.0268L69.247 23.54H73.6949C74.7836 23.54 75.7106 22.7488 75.8828 21.6745L79.2839 0.445027V0.443529ZM52.7061 5.3673L53.4879 0.443529H42.4447C38.3757 0.443529 34.9103 3.39989 34.2648 7.41862L33.218 13.9532C32.4108 18.9893 36.2986 23.5535 41.3979 23.5535C46.2291 23.5535 50.3459 20.0427 51.1112 15.2688L51.3344 13.8768C51.55 12.5297 50.5107 11.3085 49.1464 11.3085H42.6933L42.1242 14.8627C42.0418 15.3737 42.4372 15.8367 42.9538 15.8367H43.6966C44.2133 15.8367 44.6087 16.2997 44.5263 16.8106C44.2822 18.3315 42.9748 19.4508 41.4383 19.4583C39.9841 19.4658 38.8819 18.1397 39.1125 16.7028L40.6416 7.16239C40.8962 5.57707 42.3054 4.4278 43.9273 4.5192C45.1643 4.58962 46.1108 5.66099 46.1108 6.90167C46.1108 7.08447 46.259 7.23132 46.4402 7.23132H50.5182C51.6069 7.23132 52.5354 6.43866 52.7061 5.3628V5.3673ZM93.7476 0H89.1739C85.6037 0 82.5621 2.59374 81.9975 6.121L80.2932 16.7552C79.6837 20.5567 82.619 24 86.4663 24H91.0399C94.6102 24 97.6518 21.4063 98.2164 17.879L99.9206 7.2448C100.53 3.44334 97.5949 0 93.7476 0ZM93.5843 7.2448L92.0493 16.8226C91.8052 18.348 90.4888 19.4703 88.9433 19.4703C87.5011 19.4703 86.4004 18.1787 86.628 16.7537L88.1631 7.17588C88.4072 5.6505 89.7235 4.52819 91.2691 4.52819C92.7112 4.52819 93.812 5.81982 93.5843 7.2448Z" fill="url(#paint0_linear_1_6363)"/>
</g>
<defs>
<linearGradient id="paint0_linear_1_6363" x1="0" y1="11.9992" x2="100.009" y2="11.9992" gradientUnits="userSpaceOnUse">
<stop stop-color="#E90083"/>
<stop offset="1" stop-color="#FF6864"/>
</linearGradient>
<clipPath id="clip0_1_6363">
<rect width="100" height="24" fill="white"/>
</clipPath>
</defs>
</svg>
