<svg width="22" height="22" viewBox="0 0 22 22" fill="none" xmlns="http://www.w3.org/2000/svg">
<g opacity="0.6">
<path d="M17.4128 7.0793C17.3007 7.17796 17.1543 7.23343 17.002 7.23502H2.57972C2.06788 7.23502 1.80933 6.67492 2.16368 6.34715L4.53262 4.162C4.64272 4.06029 4.78908 4.00239 4.9421 4H19.4208C19.9379 4 20.1912 4.56512 19.8316 4.89415L17.4128 7.0793ZM17.4128 17.8493C17.2999 17.9461 17.1536 17.9998 17.002 18H2.57972C2.06788 18 1.80933 17.4449 2.16368 17.1172L4.53262 14.9257C4.64301 14.8252 4.78972 14.7694 4.9421 14.77H19.4208C19.9379 14.77 20.1912 15.3301 19.8316 15.6579L17.4128 17.8493ZM17.4128 9.53821C17.2999 9.44137 17.1536 9.38773 17.002 9.38751H2.57972C2.06788 9.38751 1.80933 9.94259 2.16368 10.2704L4.53262 12.4618C4.64442 12.5602 4.79022 12.6156 4.9421 12.6175H19.4208C19.9379 12.6175 20.1912 12.0574 19.8316 11.7296L17.4128 9.53821Z" fill="white"/>
</g>
</svg>
