<svg width="22" height="22" viewBox="0 0 22 22" fill="none" xmlns="http://www.w3.org/2000/svg">
<g opacity="0.6">
<path d="M19.8613 10.19H11.3837V12.647H17.4022C17.0971 16.076 14.1664 17.543 11.3929 17.543C7.85208 17.543 4.74576 14.825 4.74576 11C4.74576 7.31 7.70416 4.457 11.4022 4.457C14.2589 4.457 15.9322 6.23 15.9322 6.23L17.6888 4.448C17.6888 4.448 15.433 2 11.3097 2C6.05855 2 2 6.32 2 11C2 15.545 5.81818 20 11.4484 20C16.3945 20 20 16.697 20 11.819C20 10.784 19.8613 10.19 19.8613 10.19Z" fill="white"/>
</g>
</svg>
